<?xml version="1.0" encoding="iso-8859-1"?>
<!-- Generator: Adobe Illustrator 19.0.0, SVG Export Plug-In . SVG Version: 6.00 Build 0)  -->
<svg version="1.1" id="Layer_1" xmlns="http://www.w3.org/2000/svg" xmlns:xlink="http://www.w3.org/1999/xlink" x="0px" y="0px"
	 viewBox="0 0 512 512" style="enable-background:new 0 0 512 512;" xml:space="preserve">
<path style="fill:#DB5D45;" d="M203.386,504.163c3.708,0,7.413-0.954,10.732-2.86c6.614-3.8,10.688-10.812,10.688-18.397v-36.887
	h133.982c64.968,0,117.823-52.448,117.823-116.915c0-23.997-7.274-47.056-21.033-66.681c-5.267-7.514-11.4-14.403-18.23-20.473
	c-4.006-3.562-9.12-5.424-14.296-5.424c-2.955,0-5.931,0.606-8.734,1.849c-7.714,3.42-12.684,11.023-12.684,19.408v38.373
	c0,34.579-28.349,62.708-63.195,62.708H224.806V315.83c0-7.586-4.073-14.597-10.688-18.398c-3.321-1.906-7.027-2.859-10.732-2.859
	c-3.681,0-7.365,0.94-10.669,2.824l-146.575,83.54c-6.649,3.791-10.751,10.822-10.751,18.433c0,7.612,4.102,14.642,10.751,18.433
	l146.575,83.539C196.019,503.222,199.705,504.163,203.386,504.163z"/>
<g style="opacity:0.2;">
	<path style="fill:#FFFFFF;" d="M403.731,259.939c2.805-1.243,5.779-1.849,8.734-1.849c5.175,0,10.29,1.862,14.296,5.424
		c6.83,6.07,12.963,12.958,18.23,20.473c13.759,19.625,21.033,42.684,21.033,66.681c0,14.027-2.505,27.484-7.09,39.957
		c11.198-17.882,17.675-38.963,17.675-61.521c0-23.997-7.274-47.056-21.033-66.681c-5.267-7.514-11.4-14.403-18.23-20.473
		c-4.006-3.562-9.12-5.424-14.296-5.424c-2.955,0-5.931,0.606-8.734,1.849c-7.714,3.42-12.684,11.023-12.684,19.408v3.243
		C402.309,260.633,403.003,260.262,403.731,259.939z"/>
</g>
<g style="opacity:0.1;">
	<path d="M214.523,479.918L67.947,396.38c-6.649-3.791-10.751-10.821-10.751-18.433c0-1.18,0.11-2.343,0.301-3.485l-11.356,6.472
		c-6.649,3.791-10.751,10.822-10.751,18.433c0,7.612,4.102,14.642,10.751,18.433l146.575,83.539
		c3.302,1.883,6.988,2.824,10.669,2.824c3.708,0,7.413-0.954,10.732-2.86c6.614-3.8,10.688-10.812,10.688-18.397v-0.174
		C221.253,482.668,217.71,481.736,214.523,479.918z"/>
</g>
<path style="fill:#46D8BA;" d="M308.614,7.314c-3.708,0-7.413,0.954-10.732,2.86c-6.614,3.8-10.688,10.812-10.688,18.398v36.887
	H153.213c-64.968,0-117.823,52.448-117.823,116.915c0,23.997,7.274,47.056,21.033,66.681c5.267,7.514,11.4,14.403,18.23,20.473
	c4.006,3.562,9.121,5.424,14.296,5.424c2.955,0,5.931-0.606,8.734-1.849c7.714-3.42,12.684-11.023,12.684-19.408v-38.372
	c0-34.579,28.349-62.709,63.195-62.709h113.631v43.036c0,7.586,4.074,14.597,10.688,18.398c3.321,1.906,7.027,2.859,10.732,2.859
	c3.682,0,7.366-0.94,10.669-2.824l146.575-83.54c6.649-3.791,10.751-10.821,10.751-18.433c0-7.612-4.102-14.642-10.751-18.433
	L319.285,10.139C315.982,8.256,312.297,7.314,308.614,7.314z"/>
<g style="opacity:0.1;">
	<path d="M108.27,251.538c-2.805,1.243-5.779,1.849-8.734,1.849c-5.175,0-10.29-1.862-14.296-5.424
		c-6.831-6.07-12.963-12.958-18.23-20.473c-13.759-19.625-21.033-42.684-21.033-66.681c0-14.027,2.504-27.484,7.09-39.957
		c-11.198,17.882-17.675,38.964-17.675,61.522c0,23.997,7.274,47.056,21.033,66.681c5.267,7.514,11.4,14.403,18.23,20.473
		c4.006,3.562,9.121,5.424,14.296,5.424c2.955,0,5.931-0.606,8.734-1.849c7.714-3.42,12.684-11.023,12.684-19.408v-3.243
		C109.692,250.844,108.997,251.215,108.27,251.538z"/>
</g>
<path style="opacity:0.2;fill:#FFFFFF;enable-background:new    ;" d="M465.86,93.677L319.285,10.139
	c-3.303-1.883-6.988-2.824-10.671-2.824c-3.708,0-7.413,0.954-10.732,2.86c-3.59,2.064-6.423,5.076-8.271,8.61
	c3.091,0.292,6.137,1.219,8.917,2.806l151.299,86.23c6.863,3.913,11.098,11.169,11.098,19.028c0,2.493-0.429,4.925-1.231,7.21
	l6.165-3.514c6.649-3.791,10.751-10.821,10.751-18.433C476.611,104.498,472.509,97.468,465.86,93.677z"/>
<path d="M88.95,283.312c-7.202,0-14.128-2.629-19.504-7.401c-7.283-6.476-13.823-13.821-19.44-21.833
	c-14.688-20.954-22.451-45.567-22.451-71.182c0-68.788,56.369-124.751,125.657-124.751h126.145v-29.05
	c0-10.358,5.603-20.012,14.623-25.192C298.42,1.349,303.481,0,308.614,0c5.097,0,10.127,1.332,14.55,3.853l146.571,83.539
	c9.075,5.172,14.711,14.845,14.711,25.242s-5.636,20.069-14.71,25.242l-146.571,83.539c-4.42,2.52-9.452,3.853-14.55,3.853
	c-5.13,0-10.192-1.349-14.636-3.901c-9.021-5.183-14.623-14.835-14.623-25.192v-35.199H173.563
	c-30.526,0-55.359,24.616-55.359,54.872v38.374c0,11.471-6.81,21.901-17.347,26.573C97.087,282.463,93.079,283.312,88.95,283.312z
	 M153.211,73.818c-60.645,0-109.984,48.933-109.984,109.078c0,22.378,6.781,43.88,19.612,62.184
	c4.92,7.018,10.646,13.449,17.018,19.115c2.5,2.219,5.73,3.444,9.093,3.444c1.927,0,3.796-0.395,5.555-1.176
	c4.877-2.162,8.027-6.967,8.027-12.244v-38.374c0-38.898,31.865-70.545,71.032-70.545h113.628c4.329,0,7.837,3.509,7.837,7.837
	v43.036c0,4.762,2.589,9.207,6.757,11.603c4.127,2.37,9.482,2.379,13.616,0.022l146.572-83.539
	c4.194-2.391,6.799-6.844,6.799-11.624c0-4.78-2.605-9.234-6.799-11.624L315.404,17.47c-4.14-2.359-9.491-2.349-13.617,0.022
	c-4.168,2.395-6.757,6.84-6.757,11.603v36.887c0,4.328-3.508,7.837-7.837,7.837C287.193,73.818,153.211,73.818,153.211,73.818z"/>
<path d="M203.386,512c-5.098,0-10.129-1.332-14.551-3.854L42.26,424.609c-9.073-5.172-14.707-14.845-14.707-25.242
	c0-10.397,5.635-20.069,14.706-25.241l146.576-83.54c4.421-2.52,9.453-3.852,14.55-3.852c5.128,0,10.189,1.348,14.634,3.899
	c9.022,5.184,14.623,14.838,14.623,25.195v35.198h105.794c30.526,0,55.359-24.616,55.359-54.872v-38.373
	c0-11.471,6.809-21.901,17.344-26.572c3.774-1.674,7.781-2.522,11.911-2.522c7.208,0,14.133,2.63,19.503,7.405
	c7.28,6.468,13.821,13.814,19.44,21.83c14.688,20.951,22.452,45.565,22.452,71.18c0,68.788-56.37,124.751-125.659,124.751H232.643
	v29.05c0,10.358-5.602,20.011-14.62,25.193C213.577,510.651,208.516,512,203.386,512z M203.386,302.408
	c-2.38,0-4.727,0.621-6.789,1.796l-146.575,83.54c-4.191,2.39-6.795,6.843-6.795,11.624s2.604,9.235,6.796,11.624l146.574,83.538
	c4.135,2.358,9.485,2.35,13.619-0.023c4.164-2.393,6.753-6.839,6.753-11.602v-36.887c0-4.328,3.508-7.837,7.837-7.837h133.982
	c60.646,0,109.986-48.933,109.986-109.078c0-22.38-6.781-43.882-19.613-62.182c-4.923-7.022-10.648-13.452-17.019-19.113
	c-2.5-2.224-5.727-3.446-9.091-3.446c-1.927,0-3.797,0.396-5.558,1.177c-4.874,2.161-8.024,6.967-8.024,12.244v38.373
	c0,38.899-31.865,70.545-71.032,70.545H224.806c-4.329,0-7.837-3.509-7.837-7.837V315.83c0-4.763-2.589-9.209-6.755-11.604
	C208.144,303.037,205.782,302.408,203.386,302.408z"/>
<g>
</g>
<g>
</g>
<g>
</g>
<g>
</g>
<g>
</g>
<g>
</g>
<g>
</g>
<g>
</g>
<g>
</g>
<g>
</g>
<g>
</g>
<g>
</g>
<g>
</g>
<g>
</g>
<g>
</g>
</svg>
