<?xml version="1.0" encoding="iso-8859-1"?>
<!-- Generator: Adobe Illustrator 19.0.0, SVG Export Plug-In . SVG Version: 6.00 Build 0)  -->
<svg version="1.1" id="Layer_1" xmlns="http://www.w3.org/2000/svg" xmlns:xlink="http://www.w3.org/1999/xlink" x="0px" y="0px"
	 viewBox="0 0 512 512" style="enable-background:new 0 0 512 512;" xml:space="preserve">
<path style="fill:#FCB63E;" d="M434.73,382.766c-31.029-29.248-71.439-45.831-114.261-47.017
	c63.587-25.133,108.487-86.329,108.487-157.845C428.956,83.978,351.52,7.837,256,7.837S83.044,83.978,83.044,177.903
	c0,71.516,44.898,132.714,108.487,157.845c-42.822,1.186-83.231,17.77-114.261,47.017c-32.116,30.272-50.902,70.958-52.901,114.564
	c-0.08,1.783,0.582,3.522,1.837,4.813c1.255,1.29,2.992,2.021,4.809,2.021h449.971c1.816,0,3.553-0.729,4.808-2.021
	c1.256-1.29,1.918-3.03,1.839-4.813C485.633,453.724,466.846,413.038,434.73,382.766z"/>
<path style="opacity:0.2;fill:#FFFFFF;enable-background:new    ;" d="M320.469,335.749c42.822,1.186,83.231,17.77,114.261,47.017
	c32.116,30.272,50.903,70.957,52.901,114.564c0.08,1.783-0.583,3.522-1.839,4.813c-1.254,1.29-2.992,2.021-4.808,2.021h-40.636
	c1.815,0,3.553-0.729,4.808-2.021c1.256-1.29,1.918-3.03,1.838-4.813c-1.999-43.606-20.785-84.292-52.901-114.564
	C363.064,353.518,320.469,335.749,320.469,335.749"/>
<path style="opacity:0.1;enable-background:new    ;" d="M191.532,335.749c-42.822,1.186-83.231,17.77-114.261,47.017
	c-32.117,30.272-50.903,70.958-52.902,114.564c-0.08,1.783,0.583,3.522,1.838,4.813s2.992,2.021,4.808,2.021h40.636
	c-1.816,0-3.553-0.729-4.808-2.021c-1.256-1.29-1.918-3.03-1.838-4.813c1.999-43.606,20.785-84.292,52.901-114.564
	C148.935,353.518,191.532,335.749,191.532,335.749"/>
<path style="opacity:0.1;enable-background:new    ;" d="M164.045,313.78c-31.189-30.753-50.484-73.165-50.484-120.031
	c0-93.925,77.435-170.065,172.956-170.065c22.983,0,44.911,4.419,64.971,12.424C324.123,18.25,291.302,7.837,256,7.837
	c-95.52,0-172.956,76.142-172.956,170.067c0,67.652,40.188,126.047,98.355,153.439C175.194,325.908,169.4,320.03,164.045,313.78z"/>
<path d="M440.105,377.063c-25.525-24.059-57.349-40.005-91.628-46.251c22.313-13.065,41.553-30.751,56.501-52.097
	c20.813-29.723,31.815-64.584,31.815-100.812C436.792,79.807,355.688,0,256,0C156.31,0,75.207,79.807,75.207,177.903
	c0,36.229,11.002,71.089,31.815,100.812c14.947,21.346,34.188,39.032,56.5,52.097c-34.279,6.246-66.103,22.192-91.628,46.251
	c-33.603,31.675-53.262,74.258-55.355,119.915c-0.176,3.93,1.3,7.803,4.047,10.628c2.715,2.793,6.516,4.395,10.428,4.395h449.971
	c3.913,0,7.713-1.602,10.424-4.392c2.751-2.826,4.228-6.701,4.051-10.638C493.367,451.322,473.709,408.737,440.105,377.063z
	 M32.266,496.327c2.23-41.048,20.087-79.305,50.379-107.857c29.508-27.814,68.255-43.756,109.102-44.887
	c3.721-0.103,6.856-2.809,7.501-6.474c0.646-3.665-1.376-7.28-4.837-8.647c-30.23-11.949-56.009-32.259-74.55-58.737
	c-18.959-27.074-28.98-58.826-28.98-91.821c0-89.455,74.072-162.23,165.119-162.23c91.046,0,165.118,72.775,165.118,162.23
	c0,32.996-10.022,64.747-28.98,91.821c-18.541,26.478-44.319,46.787-74.549,58.737c-3.462,1.368-5.484,4.982-4.837,8.647
	c0.646,3.665,3.78,6.372,7.501,6.474c40.847,1.131,79.593,17.073,109.103,44.887c30.295,28.554,48.152,66.813,50.38,107.857
	L32.266,496.327L32.266,496.327z"/>
<path d="M307.993,200.637c-4.328,0-7.837,3.508-7.837,7.837c0,26.257-21.645,47.618-48.251,47.618s-48.251-21.361-48.251-47.618
	c0-4.329-3.509-7.837-7.837-7.837c-4.328,0-7.837,3.508-7.837,7.837c0,34.899,28.676,63.292,63.925,63.292
	s63.925-28.393,63.925-63.292C315.83,204.145,312.321,200.637,307.993,200.637z"/>
<ellipse cx="194.967" cy="152.189" rx="20.395" ry="20.165"/>
<ellipse cx="308.84" cy="152.189" rx="20.394" ry="20.165"/>
<g>
</g>
<g>
</g>
<g>
</g>
<g>
</g>
<g>
</g>
<g>
</g>
<g>
</g>
<g>
</g>
<g>
</g>
<g>
</g>
<g>
</g>
<g>
</g>
<g>
</g>
<g>
</g>
<g>
</g>
</svg>
