<?xml version="1.0" encoding="iso-8859-1"?>
<!-- Generator: Adobe Illustrator 19.0.0, SVG Export Plug-In . SVG Version: 6.00 Build 0)  -->
<svg version="1.1" id="Layer_1" xmlns="http://www.w3.org/2000/svg" xmlns:xlink="http://www.w3.org/1999/xlink" x="0px" y="0px"
	 viewBox="0 0 512 512" style="enable-background:new 0 0 512 512;" xml:space="preserve">
<path style="fill:#46D8BA;" d="M441.31,258.93h-44.548c0,12.223-1.095,24.191-3.187,35.815h47.735
	c14.853,0,26.935,12.05,26.935,26.861c0,14.812-12.083,26.862-26.935,26.862h-65.573c-6.369,12.767-14.046,24.764-22.874,35.815
	h88.445c34.715,0,62.854-28.061,62.854-62.677C504.164,286.991,476.025,258.93,441.31,258.93z"/>
<path style="fill:#48587C;" d="M231.181,460.325c-51.931,0-101.309-19.691-139.037-55.446
	c-37.592-35.628-59.835-83.548-62.63-134.932c-0.156-2.865,0.874-5.669,2.847-7.752c1.974-2.085,4.718-3.265,7.587-3.265h382.463
	c2.87,0,5.614,1.181,7.588,3.265c1.974,2.084,3.004,4.887,2.847,7.752c-2.795,51.384-25.037,99.304-62.629,134.932
	C332.49,440.634,283.112,460.325,231.181,460.325z"/>
<path style="opacity:0.1;enable-background:new    ;" d="M147.249,404.879c-37.592-35.628-59.835-83.548-62.63-134.932
	c-0.156-2.865,0.874-5.669,2.847-7.752c1.974-2.085,4.718-3.265,7.588-3.265H39.949c-2.87,0-5.613,1.181-7.587,3.265
	c-1.973,2.084-3.003,4.887-2.847,7.752c2.795,51.384,25.038,99.304,62.63,134.932c37.727,35.755,87.105,55.446,139.037,55.446
	c9.284,0,18.483-0.641,27.552-1.879C217.075,452.76,178.232,434.243,147.249,404.879z"/>
<path style="fill:#CE544C;" d="M43.565,477.169c-19.081,0-34.771-14.932-35.721-33.992c-0.071-1.428,0.447-2.824,1.434-3.861
	c0.986-1.037,2.354-1.624,3.786-1.624h462.843c1.43,0,2.799,0.587,3.785,1.624c0.986,1.037,1.505,2.433,1.434,3.861
	c-0.95,19.06-16.64,33.992-35.721,33.992H43.565z"/>
<path style="opacity:0.1;enable-background:new    ;" d="M73.2,443.176c-0.071-1.428,0.446-2.824,1.433-3.861
	c0.986-1.037,2.355-1.624,3.786-1.624H13.062c-1.43,0-2.799,0.587-3.786,1.624s-1.505,2.433-1.434,3.861
	c0.95,19.06,16.64,33.992,35.721,33.992h65.356C89.841,477.169,74.149,462.237,73.2,443.176z"/>
<path style="fill:#FCB63E;" d="M163.175,350.029c0,5.748-4.702,10.45-10.45,10.45h-43.04c-5.747,0-10.45-4.702-10.45-10.45v-47.351
	c0-5.748,4.703-10.45,10.45-10.45h43.04c5.747,0,10.45,4.702,10.45,10.45V350.029z"/>
<path style="fill:#FFFFFF;" d="M360.352,377.74c-1.818,0-3.645-0.629-5.128-1.914c-3.272-2.833-3.627-7.782-0.792-11.054
	c18.791-21.699,31.502-47.957,36.755-75.938c0.799-4.256,4.902-7.06,9.149-6.257c4.254,0.799,7.055,4.896,6.257,9.149
	c-5.767,30.705-19.706,59.512-40.314,83.308C364.73,376.822,362.546,377.74,360.352,377.74z"/>
<path d="M105.035,185.615c4.328,0,7.837-3.508,7.837-7.837c0-21.014,17.037-38.112,37.979-38.112s37.979,17.097,37.979,38.112
	c0,4.329,3.509,7.837,7.837,7.837s7.837-3.508,7.837-7.837c0-29.657-24.068-53.785-53.652-53.785s-53.652,24.128-53.652,53.785
	C97.198,182.108,100.707,185.615,105.035,185.615z"/>
<path d="M200.06,102.229c4.328,0,7.837-3.508,7.837-7.837c0-28.522,23.128-51.725,51.555-51.725
	c28.428,0,51.555,23.203,51.555,51.725c0,4.329,3.509,7.837,7.837,7.837c4.329,0,7.837-3.508,7.837-7.837
	c0-37.163-30.158-67.398-67.229-67.398c-37.07,0-67.229,30.234-67.229,67.398C192.223,98.721,195.732,102.229,200.06,102.229z"/>
<path d="M260.098,207.276c0,4.329,3.508,7.837,7.837,7.837c4.329,0,7.837-3.508,7.837-7.837c0-14.446,11.71-26.199,26.104-26.199
	c14.391,0,26.1,11.753,26.1,26.199c0,4.329,3.508,7.837,7.837,7.837s7.837-3.508,7.837-7.837c0-23.089-18.74-41.872-41.774-41.872
	C278.84,165.404,260.098,184.187,260.098,207.276z"/>
<path d="M392.889,392.121h48.421c38.979,0,70.691-31.632,70.691-70.514s-31.713-70.513-70.691-70.513H139.043v-0.457
	c0-4.33-3.509-7.838-7.838-7.838c-4.328,0-7.837,3.508-7.837,7.838v0.457H39.949c-5,0-9.84,2.082-13.278,5.715
	c-3.438,3.63-5.253,8.573-4.982,13.565c2.905,53.394,26.012,103.182,65.065,140.194c7.432,7.045,15.311,13.472,23.551,19.289H13.062
	c-3.56,0-7.009,1.48-9.464,4.059s-3.76,6.098-3.582,9.652c1.158,23.236,20.287,41.439,43.548,41.439h401.836
	c23.262,0,42.389-18.202,43.549-41.443c0.174-3.555-1.132-7.072-3.582-9.646c-2.453-2.581-5.904-4.06-9.465-4.06H352.058
	c8.24-5.817,16.118-12.244,23.551-19.289C381.773,404.725,387.537,398.562,392.889,392.121z M440.502,266.766h0.807
	c30.336,0,55.017,24.601,55.017,54.839c0,30.239-24.68,54.84-55.017,54.84h-36.588c4.441-6.495,8.492-13.222,12.153-20.141h24.435
	c19.174,0,34.772-15.567,34.772-34.699c0-19.133-15.599-34.698-34.772-34.698H439.1c0.735-5.465,1.268-10.978,1.57-16.531
	C440.737,269.164,440.676,267.955,440.502,266.766z M441.31,302.582c10.532,0,19.099,8.535,19.099,19.024
	c0,10.491-8.567,19.026-19.099,19.026h-16.966c5.213-12.231,9.248-24.964,12.037-38.05H441.31z M152.726,300.065
	c1.416,0,2.612,1.196,2.612,2.612v47.353c0,1.416-1.196,2.612-2.612,2.612h-43.042c-1.416,0-2.612-1.196-2.612-2.612v-47.353
	c0-1.416,1.196-2.612,2.612-2.612H152.726z M473.025,445.529c-2.008,13.55-13.652,23.803-27.623,23.803H43.565
	c-13.971,0-25.616-10.251-27.624-23.803H473.025z M364.828,399.191c-12.911,12.237-27.249,22.503-42.606,30.665H140.141
	c-15.358-8.161-29.695-18.428-42.606-30.665c-36.132-34.244-57.51-80.295-60.196-129.669c-0.039-0.714,0.222-1.42,0.713-1.938
	c0.492-0.519,1.183-0.817,1.896-0.817h83.419v17.624h-13.685c-10.082,0-18.286,8.204-18.286,18.286v47.353
	c0,10.082,8.203,18.286,18.286,18.286h43.042c10.082,0,18.286-8.203,18.286-18.286v-47.353c0-10.082-8.203-18.286-18.286-18.286
	h-13.684v-17.624h283.369c0.715,0,1.406,0.298,1.898,0.817c0.491,0.519,0.751,1.224,0.712,1.937
	C422.336,318.897,400.959,364.947,364.828,399.191z"/>
<g>
</g>
<g>
</g>
<g>
</g>
<g>
</g>
<g>
</g>
<g>
</g>
<g>
</g>
<g>
</g>
<g>
</g>
<g>
</g>
<g>
</g>
<g>
</g>
<g>
</g>
<g>
</g>
<g>
</g>
</svg>
