<?xml version="1.0" encoding="iso-8859-1"?>
<!-- Generator: Adobe Illustrator 19.0.0, SVG Export Plug-In . SVG Version: 6.00 Build 0)  -->
<svg version="1.1" id="Layer_1" xmlns="http://www.w3.org/2000/svg" xmlns:xlink="http://www.w3.org/1999/xlink" x="0px" y="0px"
	 viewBox="0 0 512 512" style="enable-background:new 0 0 512 512;" xml:space="preserve">
<path style="fill:#6F7A80;" d="M255.999,490.532c-8.164,0-15.709-4.312-19.79-11.315l-43.582-74.754
	c-4.083-7.001-4.083-15.628,0-22.63c4.081-7.003,11.625-11.314,19.789-11.314h87.167c8.164,0,15.708,4.311,19.789,11.314
	c4.083,7.002,4.083,15.629,0,22.63l-43.582,74.754C271.709,486.22,264.165,490.532,255.999,490.532z"/>
<path style="fill:#DCE0E0;" d="M36.168,457.454c-8.731,0-17.135-4.034-22.568-11.179c-6.88-9.049-7.65-21.328-1.955-31.161
	L231.477,35.579c5.058-8.733,14.407-14.113,24.523-14.113c10.116,0,19.465,5.379,24.523,14.113l219.831,379.535
	c5.694,9.832,4.925,22.109-1.954,31.158c-5.431,7.147-13.838,11.181-22.57,11.181c-2.325,0-4.674-0.285-6.995-0.876L255.909,402.47
	L43.168,456.576C40.846,457.167,38.494,457.453,36.168,457.454z"/>
<g style="opacity:0.1;">
	<path d="M66.364,446.275c-6.88-9.049-7.65-21.328-1.955-31.161L282.381,38.789l-1.859-3.21
		c-5.058-8.733-14.407-14.113-24.523-14.113s-19.465,5.379-24.523,14.113L11.645,415.114c-5.695,9.833-4.925,22.112,1.955,31.161
		c5.432,7.145,13.838,11.179,22.568,11.179c2.326-0.001,4.678-0.287,7-0.878l26.439-6.725
		C68.439,448.766,67.351,447.573,66.364,446.275z"/>
</g>
<g style="opacity:0.2;">
	<path style="fill:#FFFFFF;" d="M500.354,415.115L282.381,38.79l-19.258,33.248l194.915,336.517
		c5.694,9.832,4.925,22.109-1.954,31.158c-3.695,4.862-8.769,8.279-14.384,9.97l27.135,6.896c2.323,0.589,4.67,0.876,6.995,0.876
		c8.732,0,17.137-4.034,22.57-11.181C505.279,437.224,506.05,424.947,500.354,415.115z"/>
</g>
<path d="M507.136,411.186L287.304,31.652c-6.438-11.116-18.433-18.021-31.304-18.021s-24.866,6.905-31.304,18.021L4.864,411.186
	c-7.297,12.601-6.318,28.235,2.5,39.831c6.794,8.938,17.563,14.272,28.804,14.272h0.004c3.004-0.001,6.008-0.377,8.928-1.119
	l150.893-38.376l33.447,57.369c5.464,9.379,15.644,15.206,26.56,15.206c10.917,0,21.094-5.826,26.562-15.204l33.428-57.342
	l150.917,38.35c2.918,0.741,5.92,1.116,8.924,1.116c11.247,0,22.015-5.336,28.808-14.275
	C513.454,439.419,514.433,423.785,507.136,411.186z M242.98,475.271l-31.188-53.495l36.372-9.25v67.981
	C246.051,479.233,244.249,477.452,242.98,475.271z M269.021,475.272c-1.272,2.181-3.073,3.961-5.186,5.236v-67.937l36.355,9.238
	L269.021,475.272z M492.162,441.531c-3.847,5.063-9.952,8.086-16.33,8.086c-1.704,0-3.408-0.213-5.065-0.634l-206.931-52.583V48.376
	c0-4.328-3.508-7.836-7.836-7.836s-7.836,3.509-7.836,7.836v347.978L41.241,448.981c-1.661,0.421-3.368,0.635-5.075,0.636
	c-6.376-0.001-12.478-3.024-16.328-8.085c-4.98-6.549-5.532-15.377-1.413-22.491L238.258,39.506
	c3.644-6.293,10.444-10.204,17.741-10.204c7.299,0,14.097,3.91,17.742,10.204L493.573,419.04
	C497.694,426.155,497.14,434.982,492.162,441.531z"/>
<g>
</g>
<g>
</g>
<g>
</g>
<g>
</g>
<g>
</g>
<g>
</g>
<g>
</g>
<g>
</g>
<g>
</g>
<g>
</g>
<g>
</g>
<g>
</g>
<g>
</g>
<g>
</g>
<g>
</g>
</svg>
