<?xml version="1.0" encoding="iso-8859-1"?>
<!-- Generator: Adobe Illustrator 19.0.0, SVG Export Plug-In . SVG Version: 6.00 Build 0)  -->
<svg version="1.1" id="Layer_1" xmlns="http://www.w3.org/2000/svg" xmlns:xlink="http://www.w3.org/1999/xlink" x="0px" y="0px"
	 viewBox="0 0 512 512" style="enable-background:new 0 0 512 512;" xml:space="preserve">
<path style="fill:#DCE0E0;" d="M329.802,276.769c4.138,4.098,5.14,10.371,2.483,15.538l-60.842,118.281
	c-1.568,3.047-4.255,5.383-7.509,6.53L25.886,501.032c-4.914,1.732-10.395,0.51-14.085-3.145c-3.687-3.653-4.923-9.081-3.174-13.951
	l84.714-235.794c1.157-3.224,3.517-5.884,6.595-7.438l119.409-60.268c5.216-2.631,11.551-1.636,15.689,2.461L329.802,276.769z"/>
<path style="opacity:0.2;fill:#FFFFFF;enable-background:new    ;" d="M329.802,276.769c0,0-28.305-6.083-30.962-0.916
	l-81.499,155.684c-1.568,3.047,46.594-14.418,46.594-14.418c3.254-1.147,5.941-3.484,7.509-6.53l60.841-118.281
	C334.942,287.139,333.94,280.866,329.802,276.769z"/>
<path style="opacity:0.1;enable-background:new    ;" d="M114.847,269.819c1.157-3.224,3.517-5.884,6.595-7.438l119.409-60.268
	c5.216-2.631-5.816-19.216-5.816-19.216c-4.138-4.098-10.473-5.092-15.689-2.461L99.938,240.704
	c-3.077,1.555-5.437,4.214-6.595,7.438L8.628,483.937c-1.749,4.869-0.513,10.297,3.174,13.951c3.688,3.655,9.17,4.877,14.085,3.145
	l6.746-2.377L114.847,269.819z"/>
<path style="fill:#46D8BA;" d="M210.517,153.434c7.913-7.841,20.745-7.841,28.66,0l120.372,119.232
	c7.913,7.841,7.913,20.55,0,28.389l0,0c-7.915,7.839-20.746,7.839-28.662,0L210.515,181.821
	C202.6,173.983,202.6,161.271,210.517,153.434L210.517,153.434z"/>
<path style="fill:#48587C;" d="M239.175,125.043c7.914-7.839,20.746-7.839,28.66,0L388.208,244.28
	c7.914,7.839,7.914,20.548,0,28.387l0,0c-7.913,7.841-20.746,7.841-28.66,0L239.175,153.434
	C231.26,145.594,231.26,132.884,239.175,125.043L239.175,125.043z"/>
<path style="fill:#CE544C;" d="M497.351,130.006c8.015,7.941,9.075,20.45,2.51,29.601l-69.603,97.039
	c-3.961,5.524-10.179,9.036-16.996,9.601c-6.815,0.569-13.536-1.867-18.373-6.659L252.377,118.425
	c-4.837-4.79-7.295-11.446-6.724-18.199c0.572-6.751,4.118-12.908,9.693-16.834l97.966-68.946
	c9.241-6.502,21.869-5.453,29.885,2.488L497.351,130.006z"/>
<path style="opacity:0.2;fill:#FFFFFF;enable-background:new    ;" d="M497.351,130.006l-32.412-21.824
	c8.015,7.941,9.075,20.45,2.51,29.601l-69.603,97.039c-3.961,5.524-10.179,9.036-16.996,9.601c-0.402,0.033-0.802,0.055-1.203,0.067
	l15.241,15.097c4.837,4.792,11.559,7.228,18.373,6.659c6.816-0.565,13.035-4.077,16.996-9.601l69.603-97.039
	C506.426,150.456,505.366,137.946,497.351,130.006z"/>
<path style="opacity:0.1;enable-background:new    ;" d="M231.934,202.983c-7.914-7.839-7.914-20.55,0.002-28.387
	c7.913-7.841,20.745-7.841,28.66,0c-7.915-7.841-7.915-20.55,0-28.391c3.864-3.827,8.9-5.772,13.966-5.862l-0.765-0.756
	c-4.837-4.79-7.295-11.446-6.724-18.199c0.572-6.751,4.118-12.908,9.693-16.834l97.966-68.946
	c9.003-6.335,21.209-5.482,29.244,1.908l-20.779-20.583c-8.016-7.941-20.644-8.99-29.885-2.488l-97.966,68.946
	c-5.575,3.927-9.122,10.083-9.693,16.834c-0.573,6.753,1.887,13.41,6.724,18.199l0.764,0.756c-5.066,0.09-10.102,2.034-13.966,5.862
	c-7.915,7.841-7.915,20.55,0,28.391c-7.915-7.841-20.746-7.841-28.66,0c-7.916,7.836-7.916,20.548-0.002,28.387L231.934,202.983z"/>
<path style="fill:#FFFFFF;" d="M159.882,314.303c10.289-10.192,26.969-10.192,37.258,0c10.29,10.192,10.29,26.715,0,36.907
	c-10.289,10.192-26.97,10.192-37.258,0C149.593,341.019,149.593,324.495,159.882,314.303z"/>
<path d="M502.846,124.439L388.693,11.366c-5.865-5.809-13.661-9.01-21.95-9.01c-6.467,0-12.677,1.964-17.96,5.681l-97.967,68.948
	c-7.487,5.272-12.222,13.503-12.991,22.578c-0.441,5.203,0.455,10.345,2.515,15c-2.435,1.282-4.694,2.925-6.7,4.912
	c-5.326,5.274-8.258,12.294-8.258,19.763c0,0.165,0.017,0.327,0.02,0.493c-0.193-0.004-0.383-0.015-0.577-0.015
	c-7.493,0-14.54,2.895-19.842,8.148c-5.327,5.272-8.26,12.29-8.261,19.759c-0.001,4.855,1.245,9.519,3.577,13.639L96.383,233.709
	c-4.889,2.47-8.596,6.657-10.435,11.783L1.233,481.288c-2.766,7.698-0.789,16.398,5.033,22.166c4.029,3.992,9.382,6.191,15.07,6.191
	c2.437,0,4.838-0.412,7.135-1.221l238.047-83.914c5.161-1.819,9.378-5.49,11.872-10.337l52.985-103.007
	c-0.003-0.002-0.006-0.004-0.009-0.005c4.174,2.351,8.904,3.609,13.832,3.609c7.492,0,14.539-2.893,19.845-8.148
	c5.324-5.273,8.255-12.291,8.255-19.758c0-0.168-0.009-0.334-0.013-0.502c0.191,0.004,0.379,0.022,0.572,0.022
	c7.493,0,14.54-2.895,19.843-8.149c2.025-2.006,3.698-4.268,5.001-6.708c3.913,1.724,8.179,2.639,12.587,2.639
	c0.865,0,1.742-0.037,2.6-0.108c9.125-0.758,17.405-5.439,22.715-12.844l69.602-97.039
	C515.054,151.844,513.639,135.132,502.846,124.439z M319.215,300.544l-54.759,106.459c-0.656,1.275-1.773,2.242-3.147,2.726
	L29.381,491.484l131.113-129.871c5.353,3.304,11.536,5.078,17.995,5.078c9.116,0,17.692-3.52,24.144-9.913
	c6.473-6.412,10.038-14.943,10.038-24.02s-3.565-17.608-10.038-24.02c-6.453-6.392-15.028-9.913-24.144-9.913
	c-9.116,0-17.692,3.52-24.144,9.913c-6.473,6.412-10.037,14.943-10.037,24.02c0,6.389,1.772,12.504,5.075,17.802L18.153,480.546
	l82.545-229.757c0.481-1.338,1.459-2.437,2.749-3.09l107.596-54.306l-6.064-6.007l120.374,119.235L319.215,300.544z
	 M159.981,332.758c0-4.863,1.915-9.439,5.395-12.886c3.499-3.465,8.156-5.375,13.114-5.375c4.958,0,9.615,1.909,13.114,5.375
	c3.479,3.447,5.396,8.023,5.396,12.886c0,4.863-1.916,9.439-5.396,12.886c-3.499,3.465-8.156,5.375-13.114,5.375
	c-4.958,0-9.615-1.909-13.114-5.375C161.896,342.197,159.981,337.62,159.981,332.758z M354.015,295.487
	c-2.351,2.329-5.482,3.61-8.817,3.61c-3.334,0-6.467-1.282-8.817-3.609L216.007,176.252c-2.33-2.308-3.613-5.372-3.613-8.626
	c0.001-3.254,1.285-6.316,3.617-8.626c2.349-2.327,5.479-3.61,8.813-3.61c3.333,0,6.465,1.283,8.815,3.611l120.372,119.232
	c2.332,2.309,3.614,5.374,3.614,8.63C357.627,290.117,356.343,293.18,354.015,295.487z M373.859,270.711
	c-3.334,0-6.466-1.283-8.816-3.611L244.67,147.866c-2.332-2.309-3.615-5.374-3.615-8.628c0-3.255,1.284-6.319,3.614-8.627
	c1.582-1.566,3.519-2.646,5.632-3.193l135.545,134.262c-0.557,2.026-1.63,3.891-3.173,5.42
	C380.322,269.428,377.192,270.711,373.859,270.711z M493.472,155.04l-69.603,97.04c-2.629,3.664-6.737,5.982-11.28,6.359
	c-4.482,0.37-9.032-1.275-12.205-4.418L257.871,112.857c-3.192-3.16-4.806-7.523-4.428-11.97c0.376-4.449,2.708-8.491,6.395-11.086
	l97.965-68.946c2.628-1.848,5.72-2.825,8.941-2.825c4.131,0,8.009,1.588,10.92,4.471l114.153,113.074
	C497.108,140.814,497.804,149.002,493.472,155.04z"/>
<g>
</g>
<g>
</g>
<g>
</g>
<g>
</g>
<g>
</g>
<g>
</g>
<g>
</g>
<g>
</g>
<g>
</g>
<g>
</g>
<g>
</g>
<g>
</g>
<g>
</g>
<g>
</g>
<g>
</g>
</svg>
